PathFileType	4	(X/Y/Z)	C:/Users/beibeiliu/ov580/test_trc/User1\sequence.12_training_dense_right.trc
DataRate	CameraRate	NumFrames	NumMarkers	Units	OrigDataRate	OrigDataStartFrame	OrigNumFrames
120	120	12	19	mm	120	30	58
Frame#	Time	ThumbCMC			ThumbMCP			ThumbIP			ThumbTip			IndexMCP			IndexPIP			IndexTip			MiddleMCP			MiddlePIP			MiddleTip			RingMCP			RingPIP			RingTip			PinkyMCP			PinkyPIP			PinkyTip			BackHand1			BackHand2			BackHand3	
		X0	Y0	Z0	X1	Y1	Z1	X2	Y2	Z2	X3	Y3	Z3	X4	Y4	Z4	X5	Y5	Z5	X6	Y6	Z6	X7	Y7	Z7	X8	Y8	Z8	X9	Y9	Z9	X10	Y10	Z10	X11	Y11	Z11	X12	Y12	Z12	X13	Y13	Z13	X14	Y14	Z14	X15	Y15	Z15	X16	Y16	Z16	X17	Y17	Z17	X18	Y18	Z18	
29	0.241667	143.987	42.1005	85.8133	141.832	21.2037	48.4199	158.708	12.6849	20.5792	188.285	4.31433	14.8954	173.324	80.7313	13.6949	174.723	85.6368	-7.47002	179.269	87.5294	-33.782	207.785	77.4224	17.739	216.779	82.6789	-9.03411	223.994	87.7344	-40.0004	222.581	52.6483	22.2074	230.655	53.8282	-7.34188	235.134	49.8038	-32.3735	225.325	24.8104	33.4062	209.619	4.48384	14.8385	184.472	-4.36743	30.8333	209.894	53.9042	76.1365	207.482	49.1889	112.223	174.329	68.0209	90.8218	
30	0.25	143.907	22.2471	81.0852	151.791	-0.587962	46.5359	171.86	-6.05518	25.7631	199.352	-7.99002	19.1212	160.918	62.5436	12.9655	168.464	65.9302	-13.3067	172.186	67.4599	-37.1777	198.726	70.2399	17.1507	208.156	78.5628	-10.5609	218.919	81.3972	-38.8264	221.766	54.2151	21.9417	229.05	55.6414	-4.78331	241.814	49.1501	-30.4351	230.456	28.7409	36.1806	223.268	6.67374	19.002	202.475	-11.4799	29.5978	205.344	52.5631	78.0387	199.261	49.8023	109.964	166.84	57.0307	88.5041	
31	0.258333	141.949	10.0246	88.1208	152.191	-18.4764	55.4448	171.191	-26.2397	36.4583	201.749	-28.6984	28.8601	159.863	36.8643	13.4752	161.091	34.3343	-15.8108	168.23	30.2009	-40.8401	194.037	48.2889	12.1726	202.867	48.9658	-14.1316	210.612	47.4207	-46.1393	214.948	34.355	19.3915	225.075	29.539	-6.16494	230.022	20.7212	-27.7763	229.211	14.6445	40.8388	223.768	-9.21911	26.0916	202.181	-28.9443	39.011	198.821	43.3835	75.7948	192.182	48.5831	110.928	165.253	46.7544	86.4444	
32	0.266667	127.782	9.55906	100.608	130.926	-28.3967	72.9	147.679	-44.7834	52.6449	177.577	-51.4974	47.5543	143.939	12.2556	18.3311	140.12	0.431836	-10.06	144.188	-10.0396	-29.3033	177.287	13.692	14.3388	180.788	4.54964	-15.534	191.343	-6.91567	-41.408	196.462	1.05543	22.1343	198.838	-12.3536	-2.96226	203.202	-31.6258	-23.2093	208.855	-10.8084	44.9313	202.894	-39.7219	35.4353	179.281	-50.6816	58.8577	193.609	28.4678	75.2387	193.366	38.5328	105.684	159.746	38.9647	82.4513	
33	0.275	120.705	24.3896	103.831	101.885	-12.2585	89.4482	109.043	-38.0302	71.8129	133.611	-59.1907	62.1266	121.455	9.1248	19.2059	116.851	-3.4174	-0.610027	115.826	-19.7243	-20.8091	156.132	-7.37354	18.2479	151.022	-20.6942	-8.85009	149.04	-36.9484	-31.5506	166.741	-25.6713	23.6292	160.456	-42.1452	4.18644	153.165	-62.6511	-7.84516	175.728	-36.9654	47.8404	155.767	-58.5542	48.0757	136.697	-55.4846	78.9979	182.341	13.2153	71.644	188.336	26.8998	98.4122	154.05	39.0862	83.3662	
34	0.283333	125.205	44.1947	98.0045	88.4958	20.8005	89.0053	83.968	-3.95778	78.8513	88.5538	-36.8535	71.5331	115.429	19.0274	20.6235	100.266	13.0395	-3.93535	91.8913	-0.365155	-19.4248	128.893	-6.47453	14.2233	118.872	-20.8372	-4.53526	105.606	-40.3285	-27.1356	130.853	-28.3187	29.4612	115.577	-44.0943	15.1682	93.0115	-58.689	1.71982	133.346	-42.092	55.8096	105.895	-47.8756	64.0543	98.9153	-26.445	87.7747	168.257	-1.18662	72.0576	184.161	13.0205	97.245	158.876	36.6082	74.9356	
35	0.291667	140.161	58.9028	95.2416	94.6193	53.845	83.7234	74.2701	35.0122	75.2019	69.3535	6.02984	73.5406	116.298	38.2599	13.629	101.859	30.4892	-2.97113	87.5558	26.7561	-23.1393	115.103	1.66123	13.5405	98.4664	-7.33525	-5.20559	78.7758	-20.8016	-22.7038	105.638	-17.7504	34.7041	80.964	-22.0414	17.1993	57.1067	-31.2192	8.33859	98.6739	-25.14	59.4954	76.718	-14.9731	67.5297	82.6277	10.3873	89.2222	154.479	-1.35286	68.2871	176.406	2.42995	96.7327	164.871	30.7454	71.4658	
36	0.3	154.94	64.2408	87.2509	115.403	75.0956	79.604	86.5501	62.33	63.8475	69.8508	40.4556	64.5715	130.945	44.827	10.5764	119.17	47.8546	-10.9755	102.366	43.0322	-29.3685	118.533	17.1785	9.42304	100.103	11.1834	-8.53	77.8598	7.07245	-32.5226	100.36	2.24166	30.6498	74.554	2.56322	13.4171	51.9366	4.19517	2.11617	90.9635	-4.00793	59.6583	69.0894	20.6379	66.3611	82.119	42.3089	78.9666	147.158	1.9652	68.4211	167.733	-0.311384	91.6804	172.019	28.6578	72.2463	
37	0.308333	168.679	66.8034	89.6923	132.063	86.6005	72.3994	103.605	78.3481	52.5646	83.2833	59.0148	50.0264	153.714	51.4819	8.11507	144.358	51.9021	-15.6468	135.456	55.476	-40.3858	136.306	21.9237	5.05331	119.665	18.3565	-17.4864	99.9988	17.2152	-42.5808	113.706	12.1977	21.6158	91.4173	16.5351	-0.188882	74.3432	21.923	-14.1024	95.6676	12.0649	48.9386	80.8054	39.1566	52.0596	98.4037	60.0871	68.5456	153.391	4.70022	66.9755	166.981	-1.51851	92.9633	179.115	29.4987	68.5865	
38	0.316667	176.81	71.6771	90.1361	143.617	88.5075	64.9194	120.844	80.9367	40.6131	100.361	64.0178	34.6115	179.338	52.8479	4.24006	177.069	54.899	-20.2768	169.02	54.9217	-45.649	162.045	21.1269	4.65081	155.761	20.3686	-23.4314	142.8	18.4163	-54.1437	136.926	15.6018	10.2591	122.864	14.5029	-9.63347	108.201	21.4624	-31.1177	116.339	14.8114	36.5365	98.0988	37.6767	33.3191	109.881	60.9768	52.9962	164.26	9.97299	67.0391	174.664	5.88833	95.1688	191.534	31.3558	73.96	
39	0.325	173.929	79.6335	90.8113	144.824	82.4977	55.319	131.447	69.1046	32.4067	116.213	50.2145	22.569	198.591	60.4011	14.9648	201.687	60.4504	-12.6326	198.717	59.4432	-40.652	193.17	27.1084	5.26428	190.784	20.4367	-23.9384	183.795	15.8603	-54.0751	164.924	10.4689	7.80183	158.457	10.515	-17.4228	146.305	12.9589	-41.4852	143.183	10.0936	26.7343	119.748	28.7537	20.4585	121.3	49.0625	46.7244	179.21	10.7514	68.2896	182.22	9.17432	102.405	200.824	41.6893	80.7911	
40	0.333333	158.97	76.7118	88.9834	135.454	69.2015	53.8789	132.16	52.5196	27.813	133.97	26.9336	16.1947	199.602	72.6565	19.0881	203.567	70.248	-8.14675	204.774	68.7904	-38.4175	208.741	37.5536	13.8572	213.918	37.0402	-13.5803	215.812	30.4918	-47.0334	193.181	13.9319	15.9246	192.828	12.5412	-14.4402	185.126	7.95474	-38.7032	171.218	-1.10525	26.2642	144.152	7.69718	13.526	129.382	23.5586	37.8207	195.348	21.3313	72.0355	195.724	18.3396	105.919	196.58	52.1975	87.4192	
